<svg version="1.1" viewBox="0.0 0.0 100.0 100.0" fill="none" stroke="none" stroke-linecap="square" stroke-miterlimit="10" xmlns:xlink="http://www.w3.org/1999/xlink" xmlns="http://www.w3.org/2000/svg"><clipPath id="p.0"><path d="m0 0l100.0 0l0 100.0l-100.0 0l0 -100.0z" clip-rule="nonzero"/></clipPath><g clip-path="url(#p.0)"><path fill="#000000" fill-opacity="0.0" d="m0 0l100.0 0l0 100.0l-100.0 0z" fill-rule="evenodd"/><path fill="#666666" d="m15.764313 40.83346l0 0c0 -12.920221 6.923563 -24.849693 18.141956 -31.259045c11.218395 -6.4093494 25.01112 -6.315613 36.14136 0.24562168c11.130249 6.5612335 17.89103 18.583706 17.715424 31.502733l-9.57827 -0.13019562c0.12888336 -9.481533 -4.8329926 -18.305065 -13.001701 -23.120487c-8.168709 -4.81542 -18.291466 -4.8842154 -26.524868 -0.18026543c-8.233404 4.703949 -13.314747 13.4592285 -13.314747 22.941637z" fill-rule="evenodd"/><path fill="#666666" d="m15.764313 40.85682l0 0c0 -2.637516 2.1381302 -4.775646 4.775648 -4.775646l0 0l0 0c1.2665806 0 2.481285 0.5031471 3.376892 1.3987541c0.895607 0.895607 1.3987541 2.1103134 1.3987541 3.376892l0 23.906494c0 2.6375198 -2.1381302 4.77565 -4.775646 4.77565l0 0l0 0c-2.637518 0 -4.775648 -2.1381302 -4.775648 -4.77565z" fill-rule="evenodd"/><path fill="#666666" d="m78.21273 39.94097l0 0c0 -2.637516 2.1381302 -4.775646 4.77565 -4.775646l0 0l0 0c1.2665787 0 2.481285 0.5031471 3.376892 1.3987541c0.895607 0.895607 1.3987503 2.1103096 1.3987503 3.376892l0 23.906494c0 2.6375198 -2.1381302 4.77565 -4.7756424 4.77565l0 0l0 0c-2.6375198 0 -4.77565 -2.1381302 -4.77565 -4.77565z" fill-rule="evenodd"/><path fill="#666666" d="m16.624304 62.187016l0 0c1.5968266 -2.0982895 4.5929585 -2.5056572 6.692047 -0.9098816l0 0l0 0c1.0080185 0.7663193 1.6701317 1.9015312 1.840683 3.1559105c0.1705494 1.2543716 -0.16443253 2.525154 -0.93125534 3.5327911l-13.743843 18.059921c-1.5968266 2.0982895 -4.592958 2.505661 -6.692047 0.9098816l0 0l0 0c-2.0990891 -1.5957718 -2.5062532 -4.5904083 -0.9094269 -6.688698z" fill-rule="evenodd"/><path fill="#666666" d="m96.864365 78.39812l0 0c2.6375198 0 4.77565 2.1381302 4.77565 4.77565l0 0l0 0c0 1.2665787 -0.50315094 2.481285 -1.3987579 3.376892c-0.895607 0.895607 -2.1103134 1.3987579 -3.376892 1.3987579l-90.20039 0c-2.6375175 0 -4.775647 -2.1381302 -4.775647 -4.77565l0 0l0 0c0 -2.6375198 2.13813 -4.77565 4.775647 -4.77565z" fill-rule="evenodd"/><path fill="#666666" d="m67.39747 84.359436l0 0c0 5.6023407 -2.9977036 10.776428 -7.8579216 13.56292c-4.860218 2.7864838 -10.839905 2.7593613 -15.674648 -0.07109833c-4.8347397 -2.8304596 -7.7853813 -8.031525 -7.734562 -13.633636l9.532841 0.08647156c-0.019832611 2.186058 1.1315651 4.215622 3.0181808 5.320122c1.8866119 1.1044998 4.220005 1.1150894 6.116558 0.027740479c1.8965569 -1.0873413 3.0663185 -3.106369 3.0663185 -5.2925186z" fill-rule="evenodd"/><path fill="#666666" d="m42.940525 5.501208l0 0c0 -3.0393875 3.9504776 -5.503298 8.823643 -5.503298l0 0c4.873165 0 8.823647 2.4639103 8.823647 5.503298l0 0c0 3.0393872 -3.9504814 5.5032973 -8.823647 5.5032973l0 0c-4.873165 0 -8.823643 -2.46391 -8.823643 -5.5032973z" fill-rule="evenodd"/><path fill="#666666" d="m86.90407 62.187016l0 0c-1.5968323 -2.0982895 -4.5929565 -2.5056572 -6.692047 -0.9098816l0 0l0 0c-1.0080185 0.7663193 -1.6701355 1.9015312 -1.840683 3.1559105c-0.17055511 1.2543716 0.16442871 2.525154 0.9312515 3.5327911l13.743843 18.059921c1.5968323 2.0982895 4.5929565 2.505661 6.692047 0.9098816l0 0l0 0c2.0990906 -1.5957718 2.506256 -4.5904083 0.90943146 -6.688698z" fill-rule="evenodd"/></g></svg>