<svg version="1.1" viewBox="0.0 0.0 100.0 100.0" fill="none" stroke="none" stroke-linecap="square" stroke-miterlimit="10" xmlns:xlink="http://www.w3.org/1999/xlink" xmlns="http://www.w3.org/2000/svg"><clipPath id="p.0"><path d="m0 0l100.0 0l0 100.0l-100.0 0l0 -100.0z" clip-rule="nonzero"/></clipPath><g clip-path="url(#p.0)"><path fill="#000000" fill-opacity="0.0" d="m0 0l100.0 0l0 100.0l-100.0 0z" fill-rule="evenodd"/><path fill="#666666" d="m79.03889 9.297757l0 0c17.72496 12.645757 25.2285 35.30817 18.552582 56.033077c-6.6759186 20.7249 -25.996223 34.746803 -47.769688 34.669304c-21.773458 -0.07749939 -40.99346 -14.23658 -47.521683 -35.008476c-6.5282173 -20.771908 1.136456 -43.38033 18.950993 -55.89959l5.618637 7.9951553c-14.332864 10.0724945 -20.499554 28.26233 -15.2472105 44.97457c5.2523413 16.712242 20.715988 28.104065 38.234043 28.16642c17.518055 0.06235504 33.062405 -11.219109 38.433582 -27.893536c5.3711777 -16.67443 -0.66587067 -34.9077 -14.926674 -45.08197z" fill-rule="evenodd"/><path fill="#666666" d="m45.23961 4.7781634l0 0c0 -2.6384532 2.1388893 -4.777342 4.77734 -4.777342l0 0l0 0c1.2670326 0 2.4821663 0.50332564 3.3780937 1.399251c0.8959236 0.8959253 1.39925 2.1110609 1.39925 3.3780909l0 45.856583c0 2.6384506 -2.1388893 4.77734 -4.7773438 4.77734l0 0l0 0c-2.6384506 0 -4.77734 -2.1388893 -4.77734 -4.77734z" fill-rule="evenodd"/><path fill="#666666" d="m21.173101 9.16215l0 0c1.4902382 -1.0749254 3.9790077 -0.17712021 5.5588207 2.0053043l0 0c1.5798149 2.1824236 1.6524315 4.8230276 0.1621952 5.897952l0 0c-1.4902382 1.0749264 -3.9790077 0.17712021 -5.5588207 -2.0053034l0 0c-1.5798149 -2.1824245 -1.6524315 -4.8230276 -0.1621952 -5.897953z" fill-rule="evenodd"/><path fill="#666666" d="m78.85999 9.16215l0 0c-1.4902344 -1.0749254 -3.979004 -0.17712021 -5.558815 2.0053043l0 0c-1.5798187 2.1824236 -1.6524353 4.8230276 -0.1621933 5.897952l0 0c1.4902344 1.0749264 3.979004 0.17712021 5.558815 -2.0053034l0 0c1.5798187 -2.1824245 1.6524353 -4.8230276 0.1621933 -5.897953z" fill-rule="evenodd"/></g></svg>