<svg version="1.1" viewBox="0.0 0.0 100.0 100.0" fill="none" stroke="none" stroke-linecap="square" stroke-miterlimit="10" xmlns:xlink="http://www.w3.org/1999/xlink" xmlns="http://www.w3.org/2000/svg"><clipPath id="p.0"><path d="m0 0l100.0 0l0 100.0l-100.0 0l0 -100.0z" clip-rule="nonzero"/></clipPath><g clip-path="url(#p.0)"><path fill="#000000" fill-opacity="0.0" d="m0 0l100.0 0l0 100.0l-100.0 0z" fill-rule="evenodd"/><path fill="#666666" d="m0.0012580053 40.18756l0 0c0 -19.97843 22.385586 -36.17415 49.999607 -36.17415l0 0c27.614017 0 49.999607 16.195719 49.999607 36.17415l0 0c0 19.978432 -22.38559 36.17415 -49.999607 36.17415l0 0c-27.614021 0 -49.999607 -16.195717 -49.999607 -36.17415z" fill-rule="evenodd"/><path fill="#666666" d="m11.3280325 88.99422l0 0c21.983974 3.8616028 42.34834 -7.399315 45.485077 -25.151962c3.1367378 -17.752644 -12.141968 -35.274456 -34.125946 -39.13606l0 0c11.780397 22.338627 7.368475 47.308285 -11.359134 64.288025z" fill-rule="evenodd"/></g></svg>