<svg version="1.1" viewBox="0.0 0.0 513.9842519685039 103.67191601049869" fill="none" stroke="none" stroke-linecap="square" stroke-miterlimit="10" xmlns:xlink="http://www.w3.org/1999/xlink" xmlns="http://www.w3.org/2000/svg"><clipPath id="p.0"><path d="m0 0l513.98425 0l0 103.67191l-513.98425 0l0 -103.67191z" clip-rule="nonzero"/></clipPath><g clip-path="url(#p.0)"><path fill="#000000" fill-opacity="0.0" d="m0 0l513.98425 0l0 103.67191l-513.98425 0z" fill-rule="evenodd"/><path fill="#000000" d="m91.38058 47.50633l0 0c0 -26.153076 21.194206 -47.354332 47.338585 -47.354332l0 0c12.554977 0 24.595718 4.9891024 33.473434 13.869762c8.877701 8.880659 13.865143 20.925419 13.865143 33.48457l0 0c0 26.153072 -21.194199 47.35433 -47.338577 47.35433l0 0c-26.144379 0 -47.338585 -21.201256 -47.338585 -47.35433zm30.664986 0c0 9.21727 7.465027 16.689342 16.6736 16.689342c9.208572 0 16.6736 -7.4720726 16.6736 -16.689342c0 -9.21727 -7.465027 -16.689344 -16.6736 -16.689344l0 0c-9.208572 0 -16.6736 7.4720745 -16.6736 16.689344z" fill-rule="evenodd"/><path fill="#000000" d="m194.43494 5.274729l0 0c0 -2.8252234 2.2902985 -5.1155195 5.1155243 -5.1155195l20.461456 0l0 0c1.35672 0 2.6578674 0.538955 3.617218 1.498301c0.9593506 0.9593462 1.4983063 2.2604985 1.4983063 3.6172185l0 84.46195c0 2.8252258 -2.2902985 5.1155243 -5.1155243 5.1155243l-20.461456 0c-2.8252258 0 -5.1155243 -2.2902985 -5.1155243 -5.1155243z" fill-rule="evenodd"/><path fill="#000000" d="m258.43542 5.274729l0 0c0 -2.8252234 2.2902832 -5.1155195 5.115509 -5.1155195l20.461487 0l0 0c1.35672 0 2.6578674 0.538955 3.617218 1.498301c0.95932007 0.9593462 1.498291 2.2604985 1.498291 3.6172185l0 84.46195c0 2.8252258 -2.2903137 5.1155243 -5.115509 5.1155243l-20.461487 0c-2.8252258 0 -5.115509 -2.2902985 -5.115509 -5.1155243z" fill-rule="evenodd"/><path fill="#000000" d="m201.85872 23.386091l0 0c-1.9985504 -1.9985409 -1.9985504 -5.2388153 0 -7.237356l14.474274 -14.474281l0 0c0.95973206 -0.9597332 2.2614136 -1.4989058 3.6186829 -1.4989058c1.3572693 0 2.6589508 0.53917253 3.6186829 1.4989058l36.154404 36.154408c1.9985352 1.998539 1.9985352 5.2388153 0 7.237358l-14.474289 14.4742775c-1.9985352 1.9985428 -5.2388153 1.9985428 -7.2373505 0z" fill-rule="evenodd"/><path fill="#000000" d="m281.65955 23.386106l0 0c1.9985352 -1.9985428 1.9985352 -5.238817 0 -7.237358l-14.474274 -14.47428l0 0c-0.9597473 -0.95973325 -2.2614136 -1.4989058 -3.6186829 -1.4989058c-1.3572693 0 -2.658966 0.53917253 -3.6186829 1.4989058l-36.18593 36.185917c-1.9985352 1.9985428 -1.9985352 5.2388153 0 7.237358l14.474289 14.474281c1.9985352 1.998539 5.2388153 1.998539 7.2373505 0z" fill-rule="evenodd"/><path fill="#000000" d="m345.7888 5.2655253l0 0c0 -2.8252232 2.2903137 -5.1155195 5.1155396 -5.1155195l20.461456 0l0 0c1.35672 0 2.6578674 0.538955 3.617218 1.498301c0.9593506 0.95934594 1.498291 2.2604985 1.498291 3.6172185l0 84.46195c0 2.8252258 -2.2902832 5.1155167 -5.115509 5.1155167l-20.461456 0c-2.8252258 0 -5.1155396 -2.2902908 -5.1155396 -5.1155167z" fill-rule="evenodd"/><path fill="#000000" d="m414.8652 0.1513189l0 0c2.8252258 0 5.115509 2.2902963 5.115509 5.1155195l0 20.461466l0 0c0 1.35672 -0.5389404 2.6578712 -1.498291 3.617218c-0.9593506 0.9593468 -2.260498 1.4983006 -3.617218 1.4983006l-63.79019 0c-2.8252258 0 -5.1155396 -2.2902966 -5.1155396 -5.1155186l0 -20.461466c0 -2.8252234 2.2903137 -5.1155195 5.1155396 -5.1155195z" fill-rule="evenodd"/><path fill="#000000" d="m393.5186 41.17576l0 0c2.8252258 0 5.115509 2.2902946 5.115509 5.1155205l0 20.46146l0 0c0 1.35672 -0.5389404 2.657875 -1.498291 3.6172256c-0.9593506 0.95934296 -2.260498 1.4982986 -3.617218 1.4982986l-42.614258 0c-2.8252258 0 -5.1155396 -2.2902985 -5.1155396 -5.1155243l0 -20.46146c0 -2.8252258 2.2903137 -5.1155205 5.1155396 -5.1155205z" fill-rule="evenodd"/><path fill="#000000" d="m302.10538 5.26022l0 0c0 -2.8267107 2.291504 -5.118212 5.1181946 -5.118212l20.47226 0l0 0c1.3574219 0 2.6592712 0.53923875 3.61911 1.4990898c0.95983887 0.9598509 1.4990845 2.2616882 1.4990845 3.6191225l0 84.47224c0 2.826706 -2.291504 5.11821 -5.1181946 5.11821l-20.47226 0c-2.8266907 0 -5.1181946 -2.291504 -5.1181946 -5.11821z" fill-rule="evenodd"/><path fill="#000000" d="m428.35995 5.265558l0 0c0 -2.8252234 2.2902832 -5.1155195 5.115509 -5.1155195l20.461456 0l0 0c1.35672 0 2.6578674 0.538955 3.617218 1.498301c0.9593506 0.9593462 1.4983215 2.2604985 1.4983215 3.6172185l0 84.46195c0 2.8252258 -2.2903137 5.1155243 -5.1155396 5.1155243l-20.461456 0c-2.8252258 0 -5.115509 -2.2902985 -5.115509 -5.1155243z" fill-rule="evenodd"/><path fill="#000000" d="m483.3139 5.266871l0 0c0 -2.8252237 2.2903137 -5.11552 5.1155396 -5.11552l20.461456 0l0 0c1.35672 0 2.6578674 0.538955 3.617218 1.498301c0.9593506 0.95934606 1.498291 2.2604985 1.498291 3.6172187l0 41.416817c0 2.8252258 -2.2902832 5.1155205 -5.115509 5.1155205l-20.461456 0c-2.8252258 0 -5.1155396 -2.2902946 -5.1155396 -5.1155205z" fill-rule="evenodd"/><path fill="#000000" d="m500.26117 22.864588l0 0c2.6709595 -0.92396355 5.583954 0.49268723 6.5063477 3.164177l6.68042 19.348059l0 0c0.44299316 1.2828941 0.35827637 2.6895065 -0.23547363 3.9103928c-0.59375 1.22089 -1.6478882 2.1560478 -2.930542 2.5997505l-66.20807 22.90337c-2.6709595 0.92396545 -5.5839233 -0.4926834 -6.5063477 -3.164177l-6.68042 -19.348057c-0.9224243 -2.6714897 0.49505615 -5.586178 3.1660156 -6.5101395z" fill-rule="evenodd"/><path fill="#000000" d="m88.01423 71.66969l0 0c-10.507751 17.512161 -31.064522 26.307755 -50.987144 21.815796c-19.92262 -4.4919662 -34.716003 -21.257973 -36.69216 -41.58489c-1.9761574 -20.326912 9.310786 -39.628418 27.99511 -47.8737c18.684322 -8.245282 40.550323 -3.5739782 54.23445 11.586278l-22.691792 20.482323l0 0c-4.8447266 -5.367338 -12.586166 -7.021166 -19.201164 -4.102007c-6.614998 2.9191608 -10.611029 9.752665 -9.91139 16.949205c0.6996403 7.196541 5.93709 13.132378 12.990492 14.722713c7.053406 1.590332 14.331326 -1.5236588 18.05149 -7.7236633z" fill-rule="evenodd"/><path fill="#000000" d="m12.2054825 66.091385l0.4566927 36.8189l34.220474 -13.385826z" fill-rule="evenodd"/><path fill="#000000" d="m82.4971 15.517912l0 0c1.1431503 1.2692318 1.0373459 3.220848 -0.2363205 4.3590565l-18.190796 16.256138c-0.6116371 0.5465851 -1.4162941 0.82865906 -2.2369614 0.78416824c-0.82066345 -0.044490814 -1.5901108 -0.41190338 -2.1390724 -1.0214081l-0.14375305 -0.15961075l0 0c-1.1431465 -1.2692299 -1.0373421 -3.220848 0.23632431 -4.3590546l18.190796 -16.256138c1.2736664 -1.1382074 3.2328796 -1.031991 4.37603 0.23724174z" fill-rule="evenodd"/><path fill="#000000" d="m61.80005 56.002567l0 0c0.8825798 -1.4709625 2.7883453 -1.9443665 4.256653 -1.057373l20.856018 12.598942c0.70510864 0.4259491 1.2129669 1.1150589 1.4118576 1.915741c0.19889832 0.80067444 0.072525024 1.6473312 -0.3513031 2.353714l-0.1109848 0.18497467l0 0c-0.882576 1.4709702 -2.7883453 1.9443741 -4.256653 1.0573807l-20.856018 -12.598942c-1.4683075 -0.8869934 -1.9431343 -2.7984962 -1.0605545 -4.269459z" fill-rule="evenodd"/></g></svg>