<svg version="1.1" viewBox="0.0 0.0 488.9238845144357 103.90813648293964" fill="none" stroke="none" stroke-linecap="square" stroke-miterlimit="10" xmlns:xlink="http://www.w3.org/1999/xlink" xmlns="http://www.w3.org/2000/svg"><clipPath id="p.0"><path d="m0 0l488.9239 0l0 103.908134l-488.9239 0l0 -103.908134z" clip-rule="nonzero"/></clipPath><g clip-path="url(#p.0)"><path fill="#000000" fill-opacity="0.0" d="m0 0l488.9239 0l0 103.908134l-488.9239 0z" fill-rule="evenodd"/><path fill="#000000" d="m97.166725 53.579952l0 0c0 -23.343817 18.909798 -42.267715 42.236214 -42.267715l0 0c11.201752 0 21.944687 4.4531927 29.865524 12.379927c7.920822 7.926735 12.370697 18.677692 12.370697 29.88779l0 0c0 23.343815 -18.90979 42.26772 -42.23622 42.26772l0 0c-23.326416 0 -42.236214 -18.923904 -42.236214 -42.26772zm27.359772 0c0 8.233425 6.660408 14.90794 14.876442 14.90794c8.216034 0 14.87645 -6.674515 14.87645 -14.90794c0 -8.233429 -6.6604156 -14.90794 -14.87645 -14.90794l0 0c-8.216034 0 -14.876442 6.674511 -14.876442 14.90794z" fill-rule="evenodd"/><path fill="#000000" d="m194.20381 16.85182l0 0c0 -2.521099 2.043747 -4.5648537 4.56485 -4.5648537l18.258865 0l0 0c1.2106781 0 2.3717651 0.48093796 3.2278442 1.3370142c0.8560791 0.85607624 1.3370056 2.0171642 1.3370056 3.2278395l0 75.36994c0 2.521103 -2.043747 4.5648575 -4.56485 4.5648575l-18.258865 0c-2.521103 0 -4.56485 -2.0437546 -4.56485 -4.5648575z" fill-rule="evenodd"/><path fill="#000000" d="m251.3149 16.85182l0 0c0 -2.521099 2.043747 -4.5648537 4.56485 -4.5648537l18.258865 0l0 0c1.2106628 0 2.3717651 0.48093796 3.2278442 1.3370142c0.8560791 0.85607624 1.3370056 2.0171642 1.3370056 3.2278395l0 75.36994c0 2.521103 -2.0437622 4.5648575 -4.56485 4.5648575l-18.258865 0c-2.521103 0 -4.56485 -2.0437546 -4.56485 -4.5648575z" fill-rule="evenodd"/><path fill="#000000" d="m200.82845 33.013565l0 0c-1.7834015 -1.7834072 -1.7834015 -4.674879 0 -6.4582844l12.916183 -12.91618l0 0c0.8564148 -0.8564215 2.0179749 -1.3375549 3.2291412 -1.3375549c1.2111664 0 2.3727112 0.48113346 3.2291412 1.3375549l32.262527 32.26252c1.7834015 1.7834053 1.7834015 4.674877 0 6.4582863l-12.916183 12.916176c-1.7834015 1.7834091 -4.674881 1.7834091 -6.4582825 0z" fill-rule="evenodd"/><path fill="#000000" d="m272.03903 33.013577l0 0c1.7833862 -1.7834053 1.7833862 -4.674879 0 -6.4582844l-12.916199 -12.916179l0 0c-0.8564148 -0.8564224 -2.0179749 -1.3375549 -3.2291412 -1.3375549c-1.2111664 0 -2.3727112 0.4811325 -3.2291412 1.3375549l-32.290634 32.29064c-1.7834167 1.7834053 -1.7834167 4.674877 0 6.4582825l12.916168 12.916183c1.7834167 1.7834015 4.674881 1.7834015 6.4582825 0z" fill-rule="evenodd"/><path fill="#000000" d="m331.91074 16.850607l0 0c0 -2.5210981 2.0437622 -4.5648527 4.56485 -4.5648527l18.25888 0l0 0c1.2106628 0 2.3717651 0.4809389 3.2278442 1.3370152c0.8560791 0.8560753 1.3370056 2.0171642 1.3370056 3.2278376l0 75.36995c0 2.5210953 -2.0437622 4.56485 -4.56485 4.56485l-18.25888 0c-2.5210876 0 -4.56485 -2.0437546 -4.56485 -4.56485z" fill-rule="evenodd"/><path fill="#000000" d="m393.55136 12.286926l0 0c2.5210876 0 4.56485 2.0437546 4.56485 4.5648537l0 18.258865l0 0c0 1.2106743 -0.48095703 2.3717613 -1.3370361 3.2278404c-0.8560791 0.8560753 -2.0171509 1.3370132 -3.2278137 1.3370132l-56.923462 0c-2.5210876 0 -4.56485 -2.0437546 -4.56485 -4.5648537l0 -18.258865c0 -2.521099 2.0437622 -4.5648537 4.56485 -4.5648537z" fill-rule="evenodd"/><path fill="#000000" d="m374.5026 48.89524l0 0c2.5211182 0 4.56485 2.0437546 4.56485 4.5648537l0 18.25887l0 0c0 1.2106705 -0.4809265 2.3717575 -1.3370056 3.2278366c-0.8560791 0.8560791 -2.0171509 1.3370132 -3.2278442 1.3370132l-38.027008 0c-2.5210876 0 -4.56485 -2.0437546 -4.56485 -4.56485l0 -18.25887c0 -2.521099 2.0437622 -4.5648537 4.56485 -4.5648537z" fill-rule="evenodd"/><path fill="#000000" d="m291.18927 16.817709l0 0c0 -2.522295 2.0447083 -4.5670204 4.5670166 -4.5670204l18.267517 0l0 0c1.2112427 0 2.3728943 0.48116684 3.22937 1.3376493c0.85647583 0.8564825 1.3376465 2.0181227 1.3376465 3.229371l0 75.40139c0 2.522293 -2.0447083 4.567024 -4.5670166 4.567024l-18.267517 0c-2.5223083 0 -4.5670166 -2.0447311 -4.5670166 -4.567024z" fill-rule="evenodd"/><path fill="#000000" d="m412.4104 16.850689l0 0c0 -2.5211 2.0437622 -4.5648546 4.56485 -4.5648546l18.25888 0l0 0c1.2106628 0 2.3717651 0.4809389 3.2278442 1.3370152c0.8560791 0.85607624 1.3370056 2.0171642 1.3370056 3.2278395l0 75.36995c0 2.521103 -2.0437622 4.5648575 -4.56485 4.5648575l-18.25888 0c-2.5210876 0 -4.56485 -2.0437546 -4.56485 -4.5648575z" fill-rule="evenodd"/><path fill="#000000" d="m461.4488 16.85186l0 0c0 -2.521099 2.0437622 -4.5648537 4.56485 -4.5648537l18.25888 0l0 0c1.2106628 0 2.3717651 0.4809389 3.2278442 1.3370142c0.8560486 0.85607624 1.3370056 2.0171652 1.3370056 3.2278395l0 36.958458c0 2.521099 -2.0437622 4.5648537 -4.56485 4.5648537l-18.25888 0c-2.5210876 0 -4.56485 -2.0437546 -4.56485 -4.5648537z" fill-rule="evenodd"/><path fill="#000000" d="m476.57074 32.553772l0 0c2.383545 -0.82411575 4.9830933 0.44034958 5.806183 2.8242645l5.961334 17.265316l0 0c0.39526367 1.1447945 0.3196411 2.3999138 -0.2102356 3.4892502c-0.5298767 1.0893326 -1.4706116 1.923645 -2.6152344 2.3194008l-60.823975 21.029823c-2.383545 0.82411194 -4.9830627 -0.4403534 -5.806183 -2.8242645l-5.9613037 -17.265316c-0.8231201 -2.3839111 0.441864 -4.984535 2.8254395 -5.808651z" fill-rule="evenodd"/><path fill="#e06666" d="m88.01423 71.66969l0 0c-10.507751 17.512161 -31.064522 26.307755 -50.987144 21.815796c-19.92262 -4.4919662 -34.716003 -21.257973 -36.69216 -41.58489c-1.9761574 -20.326912 9.310786 -39.628418 27.99511 -47.8737c18.684322 -8.245282 40.550323 -3.5739782 54.23445 11.586278l-22.691792 20.482323l0 0c-4.8447266 -5.367338 -12.586166 -7.021166 -19.201164 -4.102007c-6.614998 2.9191608 -10.611029 9.752665 -9.91139 16.949205c0.6996403 7.196541 5.93709 13.132378 12.990492 14.722713c7.053406 1.590332 14.331326 -1.5236588 18.05149 -7.7236633z" fill-rule="evenodd"/><path fill="#e06666" d="m12.2054825 66.091385l0.4566927 36.8189l34.220474 -13.385826z" fill-rule="evenodd"/><path fill="#e06666" d="m82.4971 15.517912l0 0c1.1431503 1.2692318 1.0373459 3.220848 -0.2363205 4.3590565l-18.190796 16.256138c-0.6116371 0.5465851 -1.4162941 0.82865906 -2.2369614 0.78416824c-0.82066345 -0.044490814 -1.5901108 -0.41190338 -2.1390724 -1.0214081l-0.14375305 -0.15961075l0 0c-1.1431465 -1.2692299 -1.0373421 -3.220848 0.23632431 -4.3590546l18.190796 -16.256138c1.2736664 -1.1382074 3.2328796 -1.031991 4.37603 0.23724174z" fill-rule="evenodd"/><path fill="#e06666" d="m61.80005 56.002567l0 0c0.8825798 -1.4709625 2.7883453 -1.9443665 4.256653 -1.057373l20.856018 12.598942c0.70510864 0.4259491 1.2129669 1.1150589 1.4118576 1.915741c0.19889832 0.80067444 0.072525024 1.6473312 -0.3513031 2.353714l-0.1109848 0.18497467l0 0c-0.882576 1.4709702 -2.7883453 1.9443741 -4.256653 1.0573807l-20.856018 -12.598942c-1.4683075 -0.8869934 -1.9431343 -2.7984962 -1.0605545 -4.269459z" fill-rule="evenodd"/><path fill="#000000" d="m38.564316 47.210194l0 0c0 -5.2271347 3.9342537 -9.464565 8.787399 -9.464565l0 0c2.3305664 0 4.565674 0.99715424 6.2136345 2.7721062c1.6479568 1.7749519 2.5737686 4.1823006 2.5737686 6.692459l0 0c0 5.2271347 -3.9342537 9.464569 -8.787403 9.464569l0 0c-4.8531456 0 -8.787399 -4.2374344 -8.787399 -9.464569z" fill-rule="evenodd"/></g></svg>