<svg version="1.1" viewBox="0.0 0.0 100.0 100.0" fill="none" stroke="none" stroke-linecap="square" stroke-miterlimit="10" xmlns:xlink="http://www.w3.org/1999/xlink" xmlns="http://www.w3.org/2000/svg"><clipPath id="p.0"><path d="m0 0l100.0 0l0 100.0l-100.0 0l0 -100.0z" clip-rule="nonzero"/></clipPath><g clip-path="url(#p.0)"><path fill="#000000" fill-opacity="0.0" d="m0 0l100.0 0l0 100.0l-100.0 0z" fill-rule="evenodd"/><path fill="#000000" d="m-0.0137225725 49.993317l0 0c0 -27.611994 22.383945 -49.995937 49.995937 -49.995937l0 0c13.25975 0 25.97641 5.267414 35.35247 14.643472c9.3760605 9.376057 14.643471 22.09272 14.643471 35.352467l0 0c0 27.612 -22.383942 49.99594 -49.99594 49.99594l0 0c-27.611994 0 -49.995937 -22.383942 -49.995937 -49.99594zm9.800204 0l0 0c0 22.199493 17.996244 40.19574 40.195732 40.19574c22.199493 0 40.19574 -17.996246 40.19574 -40.19574l0 0c0 -22.19949 -17.996246 -40.195732 -40.19574 -40.195732l0 0c-22.19949 0 -40.195732 17.996244 -40.195732 40.195732z" fill-rule="evenodd"/><path fill="#000000" d="m43.021187 44.211914l0 0c3.1924667 -3.84375 8.896442 -4.3717194 12.740192 -1.1792564l0 0c1.8458328 1.5330772 3.0070534 3.736618 3.2282066 6.125866c0.22115326 2.389248 -0.51587677 4.7684937 -2.0489502 6.6143265l0 0c-3.1924667 3.84375 -8.896446 4.3717194 -12.740192 1.1792564l0 0c-3.84375 -3.1924667 -4.3717194 -8.896442 -1.1792564 -12.740192zm2.6203384 2.1763458l0 0c-1.9905052 2.396576 -1.6613159 5.9530067 0.7352638 7.943508c2.396576 1.9905052 5.9530067 1.6613159 7.943508 -0.7352638c1.9905014 -2.396576 1.6613121 -5.9530067 -0.7352638 -7.943508l0 0c-2.396576 -1.9905014 -5.9530067 -1.6613121 -7.943508 0.7352638z" fill-rule="evenodd"/><path fill="#000000" d="m45.940666 38.91388l26.413116 -15.85858l-10.741001 28.875216z" fill-rule="evenodd"/><path fill="#000000" d="m38.34904 48.05425l-10.740999 28.875217l26.413115 -15.858582z" fill-rule="evenodd"/><path fill="#000000" d="m40.502247 42.091084l-3.404148 9.157249l8.376835 -5.027134z" fill-rule="evenodd"/><path fill="#000000" d="m54.52022 53.751072l-3.4007797 9.14283l8.363277 -5.0211754z" fill-rule="evenodd"/><path fill="#000000" d="m40.47741 42.11063l8.385296 -5.037327l-3.412613 9.167442z" fill-rule="evenodd"/><path fill="#000000" d="m54.508938 53.76466l8.3853 -5.037323l-3.412613 9.1674385z" fill-rule="evenodd"/><path fill="#000000" d="m47.265236 39.33529l2.119503 1.760376l-8.277157 9.965755l-2.1195068 -1.7603798z" fill-rule="evenodd"/><path fill="#000000" d="m58.838276 48.92874l2.1195068 1.7603798l-8.277157 9.965752l-2.1195068 -1.760376z" fill-rule="evenodd"/></g></svg>