<svg version="1.1" viewBox="0.0 0.0 466.2834645669291 103.66929133858268" fill="none" stroke="none" stroke-linecap="square" stroke-miterlimit="10" xmlns:xlink="http://www.w3.org/1999/xlink" xmlns="http://www.w3.org/2000/svg"><clipPath id="p.0"><path d="m0 0l466.28348 0l0 103.66929l-466.28348 0l0 -103.66929z" clip-rule="nonzero"/></clipPath><g clip-path="url(#p.0)"><path fill="#000000" fill-opacity="0.0" d="m0 0l466.28348 0l0 103.66929l-466.28348 0z" fill-rule="evenodd"/><path fill="#000000" d="m95.538055 55.915115l0 0c0 -22.073997 17.887459 -39.968506 39.95276 -39.968506l0 0c10.59613 0 20.75827 4.2109547 28.25087 11.706505c7.492584 7.4955482 11.701889 17.661694 11.701889 28.262001l0 0c0 22.07399 -17.887466 39.968506 -39.95276 39.968506l0 0c-22.0653 0 -39.95276 -17.894516 -39.95276 -39.968506zm25.8806 0c0 7.7805367 6.300316 14.087906 14.072159 14.087906c7.7718353 0 14.072159 -6.307369 14.072159 -14.087906c0 -7.7805367 -6.3003235 -14.08791 -14.072159 -14.08791l0 0c-7.771843 0 -14.072159 6.307373 -14.072159 14.08791z" fill-rule="evenodd"/><path fill="#000000" d="m187.31442 21.197893l0 0c0 -2.384426 1.9329681 -4.3173866 4.317398 -4.3173866l17.269028 0l0 0c1.1450348 0 2.2431793 0.4548664 3.0528412 1.264534c0.8096771 0.8096676 1.2645416 1.9078102 1.2645416 3.0528526l0 71.284035c0 2.3844223 -1.9329681 4.317383 -4.317383 4.317383l-17.269028 0c-2.38443 0 -4.317398 -1.9329605 -4.317398 -4.317383z" fill-rule="evenodd"/><path fill="#000000" d="m241.32944 21.197893l0 0c0 -2.384426 1.9329529 -4.3173866 4.317383 -4.3173866l17.269012 0l0 0c1.14505 0 2.2431946 0.4548664 3.0528564 1.264534c0.8096924 0.8096676 1.2645569 1.9078102 1.2645569 3.0528526l0 71.284035c0 2.3844223 -1.9329834 4.317383 -4.3174133 4.317383l-17.269012 0c-2.38443 0 -4.317383 -1.9329605 -4.317383 -4.317383z" fill-rule="evenodd"/><path fill="#000000" d="m193.57994 36.483486l0 0c-1.6867218 -1.6867256 -1.6867218 -4.4214478 0 -6.1081715l12.215973 -12.215973l0 0c0.80999756 -0.80999565 1.9085846 -1.2650452 3.0540771 -1.2650452c1.1455078 0 2.2440948 0.4550495 3.0540924 1.2650452l30.51352 30.513521c1.6867218 1.6867256 1.6867218 4.4214478 0 6.1081734l-12.215973 12.215973c-1.6867218 1.6867218 -4.4214478 1.6867218 -6.1081696 0z" fill-rule="evenodd"/><path fill="#000000" d="m260.93008 36.483498l0 0c1.6867065 -1.6867256 1.6867065 -4.4214478 0 -6.1081715l-12.215988 -12.215973l0 0c-0.8099823 -0.80999374 -1.9085693 -1.2650452 -3.0540771 -1.2650452c-1.1455078 0 -2.2440948 0.45505142 -3.0540924 1.2650452l-30.540115 30.540117c-1.6867218 1.6867256 -1.6867218 4.4214478 0 6.1081734l12.215973 12.215969c1.6867218 1.6867294 4.4214478 1.6867294 6.1081696 0z" fill-rule="evenodd"/><path fill="#000000" d="m317.5561 21.196733l0 0c0 -2.384426 1.9329529 -4.3173847 4.317383 -4.3173847l17.269043 0l0 0c1.1450195 0 2.243164 0.4548645 3.0528564 1.2645321c0.80966187 0.8096676 1.2645264 1.9078121 1.2645264 3.0528526l0 71.284035c0 2.3844223 -1.9329529 4.317383 -4.317383 4.317383l-17.269043 0c-2.38443 0 -4.317383 -1.9329605 -4.317383 -4.317383z" fill-rule="evenodd"/><path fill="#000000" d="m375.85507 16.880457l0 0c2.38443 0 4.317383 1.9329586 4.317383 4.3173847l0 17.269028l0 0c0 1.1450424 -0.4548645 2.243187 -1.2645264 3.0528526c-0.80966187 0.8096657 -1.9078064 1.264534 -3.0528564 1.264534l-53.837524 0c-2.38443 0 -4.317383 -1.9329605 -4.317383 -4.3173866l0 -17.269028c0 -2.384426 1.9329529 -4.3173847 4.317383 -4.3173847z" fill-rule="evenodd"/><path fill="#000000" d="m357.839 51.50418l0 0c2.38443 0 4.317383 1.9329605 4.317383 4.3173866l0 17.269024l0 0c0 1.1450424 -0.4548645 2.243187 -1.2645264 3.0528564c-0.80966187 0.80966187 -1.9078064 1.264534 -3.0528564 1.264534l-35.965515 0c-2.38443 0 -4.317383 -1.9329605 -4.317383 -4.3173904l0 -17.269024c0 -2.384426 1.9329529 -4.3173866 4.317383 -4.3173866z" fill-rule="evenodd"/><path fill="#000000" d="m279.04248 21.154472l0 0c0 -2.386034 1.9342651 -4.3202972 4.320282 -4.3202972l17.28067 0l0 0c1.145813 0 2.24469 0.4551735 3.0549011 1.2653866c0.8102112 0.8102131 1.2653809 1.9090958 1.2653809 3.0549107l0 71.29642c0 2.386032 -1.9342346 4.3202972 -4.320282 4.3202972l-17.28067 0c-2.3860168 0 -4.320282 -1.9342651 -4.320282 -4.3202972z" fill-rule="evenodd"/><path fill="#000000" d="m393.6917 21.196836l0 0c0 -2.384426 1.9329529 -4.3173866 4.317383 -4.3173866l17.269043 0l0 0c1.1450195 0 2.243164 0.4548664 3.0528564 1.264534c0.80966187 0.8096657 1.2645264 1.9078102 1.2645264 3.0528526l0 71.28403c0 2.38443 -1.9329529 4.3173904 -4.317383 4.3173904l-17.269043 0c-2.38443 0 -4.317383 -1.9329605 -4.317383 -4.3173904z" fill-rule="evenodd"/><path fill="#000000" d="m440.07166 21.197945l0 0c0 -2.384426 1.9329529 -4.3173866 4.317383 -4.3173866l17.269043 0l0 0c1.1450195 0 2.243164 0.4548664 3.0528564 1.264534c0.80966187 0.8096657 1.2645264 1.9078102 1.2645264 3.0528526l0 34.954884c0 2.384426 -1.9329529 4.3173866 -4.317383 4.3173866l-17.269043 0c-2.38443 0 -4.317383 -1.9329605 -4.317383 -4.3173866z" fill-rule="evenodd"/><path fill="#000000" d="m454.3738 36.048634l0 0c2.254364 -0.779438 4.7129517 0.4164772 5.491455 2.6711578l5.6381226 16.329334l0 0c0.37384033 1.082737 0.30233765 2.2698135 -0.19882202 3.3000946c-0.50115967 1.0302773 -1.3908691 1.8193626 -2.4734497 2.1936607l-57.52661 19.889767c-2.254364 0.77944183 -4.7129517 -0.41648102 -5.4914246 -2.6711578l-5.638153 -16.329334c-0.7785034 -2.2546768 0.41793823 -4.7143173 2.6722717 -5.4937553z" fill-rule="evenodd"/><path fill="#000000" d="m88.01423 71.66969l0 0c-10.507751 17.512161 -31.064522 26.307755 -50.987144 21.815796c-19.92262 -4.4919662 -34.716003 -21.257973 -36.69216 -41.58489c-1.9761574 -20.326912 9.310786 -39.628418 27.99511 -47.8737c18.684322 -8.245282 40.550323 -3.5739782 54.23445 11.586278l-22.691792 20.482323l0 0c-4.8447266 -5.367338 -12.586166 -7.021166 -19.201164 -4.102007c-6.614998 2.9191608 -10.611029 9.752665 -9.91139 16.949205c0.6996403 7.196541 5.93709 13.132378 12.990492 14.722713c7.053406 1.590332 14.331326 -1.5236588 18.05149 -7.7236633z" fill-rule="evenodd"/><path fill="#000000" d="m12.2054825 66.091385l0.4566927 36.8189l34.220474 -13.385826z" fill-rule="evenodd"/><path fill="#000000" d="m82.4971 15.517912l0 0c1.1431503 1.2692318 1.0373459 3.220848 -0.2363205 4.3590565l-18.190796 16.256138c-0.6116371 0.5465851 -1.4162941 0.82865906 -2.2369614 0.78416824c-0.82066345 -0.044490814 -1.5901108 -0.41190338 -2.1390724 -1.0214081l-0.14375305 -0.15961075l0 0c-1.1431465 -1.2692299 -1.0373421 -3.220848 0.23632431 -4.3590546l18.190796 -16.256138c1.2736664 -1.1382074 3.2328796 -1.031991 4.37603 0.23724174z" fill-rule="evenodd"/><path fill="#000000" d="m61.80005 56.002567l0 0c0.8825798 -1.4709625 2.7883453 -1.9443665 4.256653 -1.057373l20.856018 12.598942c0.70510864 0.4259491 1.2129669 1.1150589 1.4118576 1.915741c0.19889832 0.80067444 0.072525024 1.6473312 -0.3513031 2.353714l-0.1109848 0.18497467l0 0c-0.882576 1.4709702 -2.7883453 1.9443741 -4.256653 1.0573807l-20.856018 -12.598942c-1.4683075 -0.8869934 -1.9431343 -2.7984962 -1.0605545 -4.269459z" fill-rule="evenodd"/></g></svg>