<svg version="1.1" viewBox="0.0 0.0 556.0 552.0" fill="none" stroke="none" stroke-linecap="square" stroke-miterlimit="10" xmlns:xlink="http://www.w3.org/1999/xlink" xmlns="http://www.w3.org/2000/svg"><clipPath id="p.0"><path d="m0 0l556.0 0l0 552.0l-556.0 0l0 -552.0z" clip-rule="nonzero"/></clipPath><g clip-path="url(#p.0)"><path fill="#000000" fill-opacity="0.0" d="m0 0l556.0 0l0 552.0l-556.0 0z" fill-rule="evenodd"/><path fill="#b7b7b7" d="m103.790825 227.61533l0 0c0 -122.9464 99.66776 -222.61417 222.61417 -222.61417l0 0c59.040955 0 115.66373 23.453926 157.41199 65.20218c41.74826 41.74826 65.20218 98.37105 65.20218 157.41199l0 0c0 122.94641 -99.667755 222.61417 -222.61417 222.61417l0 0c-122.94641 0 -222.61417 -99.667755 -222.61417 -222.61417zm29.385078 0l0 0c0 106.7175 86.51161 193.2291 193.2291 193.2291c106.7175 0 193.2291 -86.5116 193.2291 -193.2291l0 0c0 -106.71748 -86.5116 -193.2291 -193.2291 -193.2291l0 0c-106.71748 0 -193.2291 86.51161 -193.2291 193.2291z" fill-rule="evenodd"/><path fill="#b7b7b7" d="m159.54347 369.04724l0 0c6.3925934 -6.392578 16.757019 -6.392578 23.149612 0l0 0l0 0c3.0698242 3.0698242 4.7944336 7.233429 4.7944336 11.574799c0 4.3414 -1.7246094 8.504974 -4.7944336 11.574799l-147.9685 147.9685c-6.3925858 6.392578 -16.757017 6.392578 -23.149605 0l0 0l0 0c-6.3925867 -6.392578 -6.3925867 -16.757019 0 -23.149597z" fill-rule="evenodd"/><path fill="#b7b7b7" d="m221.18898 164.67717l0 0c0 -14.655121 11.88031 -26.53543 26.53543 -26.53543l0 0c7.037628 0 13.787033 2.7956848 18.763382 7.772049c4.976349 4.976349 7.772064 11.725739 7.772064 18.763382l0 0c0 14.655106 -11.880341 26.53543 -26.535446 26.53543l0 0c-14.655121 0 -26.53543 -11.880325 -26.53543 -26.53543z" fill-rule="evenodd"/><path fill="#b7b7b7" d="m377.2068 164.67717l0 0c0 -14.655121 11.88031 -26.53543 26.53543 -26.53543l0 0c7.037628 0 13.787048 2.7956848 18.763397 7.772049c4.976349 4.976349 7.7720337 11.725739 7.7720337 18.763382l0 0c0 14.655106 -11.88031 26.53543 -26.53543 26.53543l0 0c-14.655121 0 -26.53543 -11.880325 -26.53543 -26.53543z" fill-rule="evenodd"/><path fill="#b7b7b7" d="m222.68945 325.7673l0 0c8.674896 -26.772217 52.888336 -46.29019 104.43625 -46.10327c51.547913 0.18695068 95.24725 20.023682 103.22186 46.856293l-29.156555 2.4053955c-8.075195 -12.125732 -38.639618 -20.74121 -74.02286 -20.865509c-35.38321 -0.12426758 -66.430084 8.27478 -75.19124 20.34137z" fill-rule="evenodd"/><path fill="#b7b7b7" d="m222.49608 326.90552l0 0c0.16523743 -3.7833862 6.9127045 -6.5754395 15.070862 -6.2362366l0 0c8.158157 0.33920288 14.637695 3.6812134 14.472443 7.464569l0 0c-0.16525269 3.7833862 -6.9127045 6.5754395 -15.070877 6.2362366l0 0c-8.158157 -0.33920288 -14.63768 -3.6812134 -14.472427 -7.464569z" fill-rule="evenodd"/><path fill="#b7b7b7" d="m430.36484 326.88977l0 0c-0.16525269 -3.7920837 -6.8421936 -6.5911865 -14.913391 -6.2519836l0 0c-8.071167 0.33920288 -14.480194 3.688263 -14.314941 7.480316l0 0c0.16525269 3.7920837 6.8421936 6.5911865 14.913391 6.2519836l0 0c8.071167 -0.33920288 14.480194 -3.688263 14.314941 -7.480316z" fill-rule="evenodd"/></g></svg>