<svg version="1.1" viewBox="0.0 0.0 100.0 100.0" fill="none" stroke="none" stroke-linecap="square" stroke-miterlimit="10" xmlns:xlink="http://www.w3.org/1999/xlink" xmlns="http://www.w3.org/2000/svg"><clipPath id="p.0"><path d="m0 0l100.0 0l0 100.0l-100.0 0l0 -100.0z" clip-rule="nonzero"/></clipPath><g clip-path="url(#p.0)"><path fill="#b7b7b7" d="m0 0l100.0 0l0 100.0l-100.0 0z" fill-rule="evenodd"/><path fill="#ffffff" d="m29.007874 34.425198l0 0c0 -11.593632 9.398495 -20.992126 20.992126 -20.992126l0 0c5.567459 0 10.906887 2.2116642 14.843674 6.148451c3.9367905 3.9367867 6.1484528 9.2762165 6.1484528 14.843676l0 0c0 11.593632 -9.398495 20.992126 -20.992126 20.992126l0 0c-11.593632 0 -20.992126 -9.398495 -20.992126 -20.992126z" fill-rule="evenodd"/><path fill="#ffffff" d="m38.97638 51.401573l22.047241 0l0 0c6.4445496 0 12.625153 2.560089 17.182137 7.117077c4.5569916 4.556984 7.1170807 10.737583 7.1170807 17.18214l0 24.29921c0 3.2806396E-4 -2.670288E-4 5.874634E-4 -5.950928E-4 5.874634E-4l-70.64508 -5.874634E-4l0 0c-3.2520294E-4 0 -5.8841705E-4 -2.670288E-4 -5.8841705E-4 -5.874634E-4l5.8841705E-4 -24.298622l0 0c0 -13.420086 10.879128 -24.299217 24.299213 -24.299217z" fill-rule="evenodd"/><path fill="#b7b7b7" d="m0 50.627296l0 0c0 -27.614237 22.385763 -50.0 50.0 -50.0l0 0c13.260826 0 25.978523 5.2678423 35.35534 14.644661c9.376816 9.37682 14.644661 22.094513 14.644661 35.35534l0 0c0 27.614235 -22.385765 50.0 -50.0 50.0l0 0c-27.614237 0 -50.0 -22.385765 -50.0 -50.0zm2.808 0l0 0c0 26.063423 21.128578 47.192 47.192 47.192c26.063423 0 47.192 -21.128578 47.192 -47.192l0 0c0 -26.063421 -21.128578 -47.192 -47.192 -47.192l0 0c-26.063421 0 -47.192 21.128578 -47.192 47.192z" fill-rule="evenodd"/></g></svg>