<svg version="1.1" viewBox="0.0 0.0 100.0 100.0" fill="none" stroke="none" stroke-linecap="square" stroke-miterlimit="10" xmlns:xlink="http://www.w3.org/1999/xlink" xmlns="http://www.w3.org/2000/svg"><clipPath id="p.0"><path d="m0 0l100.0 0l0 100.0l-100.0 0l0 -100.0z" clip-rule="nonzero"/></clipPath><g clip-path="url(#p.0)"><path fill="#000000" fill-opacity="0.0" d="m0 0l100.0 0l0 100.0l-100.0 0z" fill-rule="evenodd"/><path fill="#666666" d="m-1.655801E-4 49.999813l0 0c0 -27.614178 22.385715 -49.999893 49.999893 -49.999893l0 0c13.260796 0 25.978466 5.267831 35.355267 14.6446295c9.376801 9.3768 14.64463 22.094467 14.64463 35.355263l0 0c0 27.614178 -22.38572 49.999897 -49.999897 49.999897l0 0c-27.61418 0 -49.999893 -22.38572 -49.999893 -49.999897zm9.80098 0l0 0c0 22.201252 17.997667 40.198917 40.198914 40.198917c22.201244 0 40.198917 -17.997665 40.198917 -40.198917l0 0c0 -22.201246 -17.997673 -40.198914 -40.198917 -40.198914l0 0c-22.201248 0 -40.198914 17.99767 -40.198914 40.198914z" fill-rule="evenodd"/><path fill="#666666" d="m28.998934 32.13079l0 0c-1.6737785 -2.0365486 -1.3796711 -5.0443287 0.65690804 -6.718069l0 0l0 0c0.97799873 -0.8037567 2.235241 -1.1860924 3.4951477 -1.0628967c1.259903 0.123197556 2.4192696 0.74183464 3.2230453 1.7198181l17.40623 21.178804c1.6737747 2.0365448 1.3796692 5.044327 -0.65690994 6.718067l0 0l0 0c-2.0365791 1.6737366 -5.0444145 1.3796234 -6.718193 -0.6569214z" fill-rule="evenodd"/><path fill="#666666" d="m64.67053 38.018158l0 0c2.3690262 -1.1531601 5.225685 -0.16817093 6.3805237 2.2000313l0 0l0 0c0.55457306 1.1372528 0.6345062 2.4479103 0.22221375 3.6436424c-0.41229248 1.1957283 -1.2830429 2.1785889 -2.4206848 2.7323532l-15.976421 7.776787c-2.3690224 1.1531601 -5.2256813 0.16817474 -6.38052 -2.2000313l0 0l0 0c-1.1548424 -2.368206 -0.1705513 -5.2228355 2.198471 -6.3759956z" fill-rule="evenodd"/></g></svg>