<svg version="1.1" viewBox="0.0 0.0 240.0 100.0" fill="none" stroke="none" stroke-linecap="square" stroke-miterlimit="10" xmlns:xlink="http://www.w3.org/1999/xlink" xmlns="http://www.w3.org/2000/svg"><clipPath id="p.0"><path d="m0 0l240.0 0l0 100.0l-240.0 0l0 -100.0z" clip-rule="nonzero"/></clipPath><g clip-path="url(#p.0)"><path fill="#000000" fill-opacity="0.0" d="m0 0l240.0 0l0 100.0l-240.0 0z" fill-rule="evenodd"/><path fill="#b7b7b7" d="m0 -0.015748031l240.0 0l0 100.0l-240.0 0z" fill-rule="evenodd"/><path fill="#000000" d="m67.62832 62.137375l11.953125 0l0 7.046875l-21.0625 0l0 -37.4375l9.109375 0l0 30.390627zm29.87497 7.46875q-4.375 0 -7.875 -1.859375q-3.484375 -1.875 -5.484375 -5.328125q-2.0 -3.46875 -2.0 -8.109375q0 -4.59375 2.015625 -8.078125q2.03125 -3.5 5.546875 -5.359375q3.515625 -1.875 7.890625 -1.875q4.375 0 7.890625 1.875q3.53125 1.859375 5.546875 5.359375q2.03125 3.484375 2.03125 8.078125q0 4.578125 -2.0625 8.078125q-2.046875 3.484375 -5.59375 5.359375q-3.546875 1.859375 -7.90625 1.859375zm0 -7.890625q2.609375 0 4.4375 -1.921875q1.84375 -1.921875 1.84375 -5.484375q0 -3.578125 -1.78125 -5.5q-1.78125 -1.921875 -4.40625 -1.921875q-2.65625 0 -4.421875 1.90625q-1.765625 1.890625 -1.765625 5.515625q0 3.5625 1.734375 5.484375q1.734375 1.921875 4.359375 1.921875zm31.719948 -22.71875q3.15625 0 5.515625 1.28125q2.375 1.28125 3.65625 3.359375l0 -4.203125l9.125 0l0 29.703125q0 4.09375 -1.625 7.421875q-1.625 3.34375 -4.96875 5.3125q-3.328125 1.984375 -8.28125 1.984375q-6.6249924 0 -10.734367 -3.125q-4.09375 -3.125 -4.6875 -8.453125l9.015625 0q0.421875 1.703125 2.0156174 2.6875q1.609375 0.984375 3.953125 0.984375q2.828125 0 4.5 -1.625q1.6875 -1.625 1.6875 -5.1875l0 -4.21875q-1.328125 2.078125 -3.671875 3.390625q-2.34375 1.296875 -5.5 1.296875q-3.6718674 0 -6.6718674 -1.890625q-2.984375 -1.890625 -4.71875 -5.375q-1.71875 -3.5 -1.71875 -8.09375q0 -4.578125 1.71875 -8.046875q1.734375 -3.46875 4.71875 -5.328125q3.0 -1.875 6.6718674 -1.875zm9.171875 15.3125q0 -3.421875 -1.890625 -5.390625q-1.890625 -1.96875 -4.609375 -1.96875q-2.71875 0 -4.6249924 1.953125q-1.890625 1.9375 -1.890625 5.34375q0 3.421875 1.890625 5.421875q1.9062424 2.0 4.6249924 2.0q2.71875 0 4.609375 -1.96875q1.890625 -1.984375 1.890625 -5.390625zm29.287872 15.296875q-4.375 0 -7.875 -1.859375q-3.484375 -1.875 -5.484375 -5.328125q-2.0 -3.46875 -2.0 -8.109375q0 -4.59375 2.015625 -8.078125q2.03125 -3.5 5.546875 -5.359375q3.515625 -1.875 7.890625 -1.875q4.375 0 7.890625 1.875q3.53125 1.859375 5.546875 5.359375q2.03125 3.484375 2.03125 8.078125q0 4.578125 -2.0625 8.078125q-2.046875 3.484375 -5.59375 5.359375q-3.546875 1.859375 -7.90625 1.859375zm0 -7.890625q2.609375 0 4.4375 -1.921875q1.84375 -1.921875 1.84375 -5.484375q0 -3.578125 -1.78125 -5.5q-1.78125 -1.921875 -4.40625 -1.921875q-2.65625 0 -4.421875 1.90625q-1.765625 1.890625 -1.765625 5.515625q0 3.5625 1.734375 5.484375q1.734375 1.921875 4.359375 1.921875z" fill-rule="nonzero"/></g></svg>