<svg version="1.1" viewBox="0.0 0.0 100.0 100.0" fill="none" stroke="none" stroke-linecap="square" stroke-miterlimit="10" xmlns:xlink="http://www.w3.org/1999/xlink" xmlns="http://www.w3.org/2000/svg"><clipPath id="p.0"><path d="m0 0l100.0 0l0 100.0l-100.0 0l0 -100.0z" clip-rule="nonzero"/></clipPath><g clip-path="url(#p.0)"><path fill="#000000" fill-opacity="0.0" d="m0 0l100.0 0l0 100.0l-100.0 0z" fill-rule="evenodd"/><path fill="#000000" d="m-0.0032451444 49.980576l0 0c0 -27.611994 22.383944 -49.99594 49.99594 -49.99594l0 0c13.259747 0 25.976414 5.267414 35.352467 14.643472c9.3760605 9.376058 14.643471 22.09272 14.643471 35.352467l0 0c0 27.612 -22.383942 49.99594 -49.995937 49.99594l0 0c-27.611996 0 -49.99594 -22.383942 -49.99594 -49.99594zm9.800204 0l0 0c0 22.199493 17.996244 40.19574 40.195736 40.19574c22.19949 0 40.195736 -17.996246 40.195736 -40.19574l0 0c0 -22.199492 -17.996246 -40.195736 -40.195736 -40.195736l0 0c-22.199492 0 -40.195736 17.996243 -40.195736 40.195736z" fill-rule="evenodd"/><path fill="#000000" d="m45.21705 27.119377l0 0c0 -2.637516 2.1381302 -4.775646 4.775646 -4.775646l0 0l0 0c1.2665787 0 2.481285 0.5031471 3.376892 1.3987541c0.895607 0.8956089 1.3987541 2.1103134 1.3987541 3.376892l0 45.721878c0 2.6375198 -2.1381302 4.77565 -4.775646 4.77565l0 0l0 0c-2.637516 0 -4.775646 -2.1381302 -4.775646 -4.77565z" fill-rule="evenodd"/><path fill="#000000" d="m27.131756 54.755962l0 0c-2.637516 0 -4.775646 -2.1381302 -4.775646 -4.775646l0 0l0 0c0 -1.2665787 0.5031471 -2.481285 1.3987541 -3.376892c0.895607 -0.895607 2.1103115 -1.3987541 3.376892 -1.3987541l45.721874 0c2.6375198 0 4.77565 2.1381302 4.77565 4.775646l0 0l0 0c0 2.637516 -2.1381302 4.775646 -4.77565 4.775646z" fill-rule="evenodd"/></g></svg>